<svg xmlns="http://www.w3.org/2000/svg" xmlns:xlink="http://www.w3.org/1999/xlink" width="2048" zoomAndPan="magnify" viewBox="0 0 1536 1535.999932" height="2048" preserveAspectRatio="xMidYMid meet" version="1.0"><defs><g/><clipPath id="1960804585"><path d="M 1 121 L 516.832031 121 L 516.832031 489 L 1 489 Z M 1 121 " clip-rule="nonzero"/></clipPath><clipPath id="ed03a397f2"><path d="M 31 198 L 308 198 L 308 676.398438 L 31 676.398438 Z M 31 198 " clip-rule="nonzero"/></clipPath><clipPath id="cae77cdb68"><path d="M 47 0.722656 L 508 0.722656 L 508 167 L 47 167 Z M 47 0.722656 " clip-rule="nonzero"/></clipPath><clipPath id="2fe45481a7"><rect x="0" width="518" y="0" height="677"/></clipPath></defs><g transform="matrix(1, 0, 0, 1, 296, 358)"><g clip-path="url(#2fe45481a7)"><g clip-path="url(#1960804585)"><path fill="#00bf63" d="M 516.667969 253.667969 C 433.03125 157.257812 295.410156 127.128906 180.085938 179.488281 C 62.464844 232.859375 -5.5 360.003906 15.375 488.4375 C -29.617188 351.628906 36.929688 202.117188 166.238281 144.695312 C 291.832031 88.957031 442.625 135.101562 516.667969 253.667969 Z M 516.667969 253.667969 " fill-opacity="1" fill-rule="nonzero"/></g><g clip-path="url(#ed03a397f2)"><path fill="#0e4c27" d="M 194.949219 198.402344 C 90.90625 260.894531 42.941406 385.136719 77.328125 496.070312 C 108.136719 595.585938 199.882812 667.332031 307.503906 675.101562 C 187.519531 686.65625 76.855469 613.691406 42.535156 505.257812 C 4.363281 384.800781 69.289062 247.652344 194.949219 198.402344 Z M 194.949219 198.402344 " fill-opacity="1" fill-rule="nonzero"/></g><g clip-path="url(#cae77cdb68)"><path fill="#0e4c27" d="M 493.765625 141.855469 L 493.765625 92.875 L 507.816406 88.957031 L 277.84375 0.722656 L 47.871094 88.957031 L 123.066406 110.847656 C 123.066406 128.277344 123.066406 145.773438 123.066406 163.203125 C 143.535156 149.355469 198.125 116.320312 275.34375 115.441406 C 356.484375 114.496094 413.976562 149.488281 434.179688 163.203125 C 434.109375 149.625 434.042969 136.113281 433.976562 122.535156 C 427.285156 119.15625 420.328125 115.777344 413.097656 112.46875 C 393.507812 103.617188 374.65625 96.726562 357.09375 91.253906 C 373.375 92.199219 392.898438 95.039062 414.113281 101.996094 C 421.339844 104.359375 428.03125 106.925781 434.179688 109.699219 L 486.132812 95.105469 L 486.132812 141.921875 C 480.929688 143.542969 477.144531 148.410156 477.144531 154.152344 C 477.144531 161.246094 482.886719 166.988281 489.980469 166.988281 C 497.074219 166.988281 502.820312 161.246094 502.820312 154.152344 C 502.75 148.339844 498.96875 143.476562 493.765625 141.855469 Z M 493.765625 141.855469 " fill-opacity="1" fill-rule="nonzero"/></g><g fill="#0e4c27" fill-opacity="1"><g transform="translate(116.623397, 451.514122)"><g><path d="M 3.109375 0 L 3.109375 -70.375 L 31.296875 -70.375 L 31.296875 -56.765625 L 17.453125 -56.765625 L 17.453125 -43.09375 L 30.71875 -43.09375 L 30.71875 -29.8125 L 17.453125 -29.8125 L 17.453125 -13.6875 L 32.1875 -13.6875 L 32.1875 0 Z M 3.109375 0 "/></g></g></g><g fill="#0e4c27" fill-opacity="1"><g transform="translate(160.283413, 451.514122)"><g><path d="M 37.28125 0 L 22.9375 0 L 16.875 -16.875 L 11.140625 0 L 0.328125 0 L 11.3125 -32.1875 L 1.3125 -60.046875 L 15.890625 -60.046875 L 21.046875 -45.46875 L 26.140625 -60.046875 L 36.78125 -60.046875 L 26.453125 -30.390625 Z M 37.28125 0 "/></g></g></g><g fill="#0e4c27" fill-opacity="1"><g transform="translate(207.793296, 451.514122)"><g><path d="M 2.875 -59.96875 L 17.453125 -59.96875 L 17.453125 -56.765625 C 19.523438 -59.335938 22.390625 -60.625 26.046875 -60.625 C 30.691406 -60.625 33.925781 -59.066406 35.75 -55.953125 C 37.582031 -52.835938 38.5 -48.523438 38.5 -43.015625 L 38.5 -20.8125 C 38.5 -16.113281 38.222656 -12.273438 37.671875 -9.296875 C 37.128906 -6.316406 35.929688 -3.910156 34.078125 -2.078125 C 32.222656 -0.253906 29.410156 0.65625 25.640625 0.65625 C 22.035156 0.65625 19.304688 -0.351562 17.453125 -2.375 L 17.453125 11.953125 L 2.875 11.953125 Z M 20.890625 -10.484375 C 22.203125 -10.484375 23.046875 -11.082031 23.421875 -12.28125 C 23.804688 -13.488281 24 -15.238281 24 -17.53125 L 24 -43.015625 C 24 -45.085938 23.804688 -46.671875 23.421875 -47.765625 C 23.046875 -48.859375 22.175781 -49.40625 20.8125 -49.40625 C 18.570312 -49.40625 17.453125 -47.328125 17.453125 -43.171875 L 17.453125 -16.875 C 17.453125 -14.851562 17.679688 -13.28125 18.140625 -12.15625 C 18.609375 -11.039062 19.523438 -10.484375 20.890625 -10.484375 Z M 20.890625 -10.484375 "/></g></g></g><g fill="#0e4c27" fill-opacity="1"><g transform="translate(258.661572, 451.514122)"><g><path d="M 2.875 0 L 2.875 -70.78125 L 17.453125 -70.78125 L 17.453125 0 Z M 2.875 0 "/></g></g></g><g fill="#0e4c27" fill-opacity="1"><g transform="translate(288.888012, 451.514122)"><g><path d="M 13.765625 0.65625 C 9.117188 0.65625 5.9375 -0.882812 4.21875 -3.96875 C 2.5 -7.0625 1.640625 -11.472656 1.640625 -17.203125 C 1.640625 -21.898438 2.253906 -25.503906 3.484375 -28.015625 C 4.710938 -30.523438 6.414062 -32.367188 8.59375 -33.546875 C 10.78125 -34.722656 14.113281 -36.019531 18.59375 -37.4375 L 22.53125 -38.75 L 22.53125 -44.890625 C 22.53125 -46.472656 22.210938 -47.6875 21.578125 -48.53125 C 20.953125 -49.382812 20.203125 -49.8125 19.328125 -49.8125 C 18.566406 -49.8125 17.898438 -49.453125 17.328125 -48.734375 C 16.753906 -48.023438 16.46875 -47.070312 16.46875 -45.875 L 16.46875 -42.265625 L 2.546875 -42.265625 L 2.546875 -44.234375 C 2.546875 -50.128906 3.921875 -54.332031 6.671875 -56.84375 C 9.429688 -59.363281 13.925781 -60.625 20.15625 -60.625 C 25.125 -60.625 29.164062 -59.328125 32.28125 -56.734375 C 35.394531 -54.140625 36.953125 -50.46875 36.953125 -45.71875 L 36.953125 0 L 22.6875 0 L 22.6875 -7.125 C 21.976562 -4.664062 20.84375 -2.753906 19.28125 -1.390625 C 17.726562 -0.0234375 15.890625 0.65625 13.765625 0.65625 Z M 19.421875 -10.484375 C 20.503906 -10.484375 21.28125 -10.929688 21.75 -11.828125 C 22.21875 -12.734375 22.453125 -13.84375 22.453125 -15.15625 L 22.453125 -31.875 C 20.316406 -31.050781 18.742188 -30.007812 17.734375 -28.75 C 16.722656 -27.5 16.21875 -25.753906 16.21875 -23.515625 L 16.21875 -15.8125 C 16.21875 -12.257812 17.285156 -10.484375 19.421875 -10.484375 Z M 19.421875 -10.484375 "/></g></g></g><g fill="#0e4c27" fill-opacity="1"><g transform="translate(338.363785, 451.514122)"><g><path d="M 2.78125 -63.984375 L 2.78125 -73.96875 L 17.125 -73.96875 L 17.125 -63.984375 Z M 2.78125 0 L 2.78125 -59.96875 L 17.125 -59.96875 L 17.125 0 Z M 2.78125 0 "/></g></g></g><g fill="#0e4c27" fill-opacity="1"><g transform="translate(368.180665, 451.514122)"><g><path d="M 2.875 -59.96875 L 17.203125 -59.96875 L 17.203125 -52.34375 C 17.804688 -54.800781 18.84375 -56.796875 20.3125 -58.328125 C 21.789062 -59.859375 23.757812 -60.625 26.21875 -60.625 C 30.257812 -60.625 33.25 -59.378906 35.1875 -56.890625 C 37.125 -54.410156 38.09375 -50.875 38.09375 -46.28125 L 38.09375 0 L 24 0 L 24 -44.8125 C 24 -46.125 23.738281 -47.242188 23.21875 -48.171875 C 22.707031 -49.097656 21.90625 -49.5625 20.8125 -49.5625 C 19.332031 -49.5625 18.359375 -48.890625 17.890625 -47.546875 C 17.429688 -46.210938 17.203125 -44.425781 17.203125 -42.1875 L 17.203125 0 L 2.875 0 Z M 2.875 -59.96875 "/></g></g></g><g fill="#0e4c27" fill-opacity="1"><g transform="translate(418.967027, 451.514122)"><g><path d="M 2.453125 0 L 2.453125 -70.375 L 16.0625 -70.375 L 16.0625 0 Z M 2.453125 0 "/></g></g></g><g fill="#0e4c27" fill-opacity="1"><g transform="translate(447.473306, 451.514122)"><g><path d="M 15.234375 0.65625 C 11.460938 0.65625 8.867188 -0.132812 7.453125 -1.71875 C 6.035156 -3.300781 5.328125 -5.84375 5.328125 -9.34375 L 5.328125 -46.78125 L 1.3125 -46.78125 L 1.3125 -57.671875 L 5.328125 -57.671875 L 5.328125 -70.375 L 19.25 -70.375 L 19.25 -57.671875 L 23.34375 -57.671875 L 23.34375 -46.78125 L 19.25 -46.78125 L 19.25 -13.109375 C 19.25 -12.066406 19.332031 -11.300781 19.5 -10.8125 C 19.664062 -10.320312 20.101562 -10.078125 20.8125 -10.078125 C 21.351562 -10.078125 21.867188 -10.101562 22.359375 -10.15625 C 22.859375 -10.207031 23.1875 -10.234375 23.34375 -10.234375 L 23.34375 -0.40625 C 22.53125 -0.1875 21.34375 0.0390625 19.78125 0.28125 C 18.226562 0.53125 16.710938 0.65625 15.234375 0.65625 Z M 15.234375 0.65625 "/></g></g></g><g fill="#00bf63" fill-opacity="1"><g transform="translate(116.623397, 481.725756)"><g><path d="M 10.6875 -3.203125 L 10.6875 0 L 1.40625 0 L 1.40625 -16.015625 L 10.6875 -16.015625 L 10.6875 -12.8125 L 4.9375 -12.8125 L 4.9375 -9.625 L 10.453125 -9.625 L 10.453125 -6.421875 L 4.9375 -6.421875 L 4.9375 -3.203125 Z M 10.6875 -3.203125 "/></g></g></g><g fill="#00bf63" fill-opacity="1"><g transform="translate(129.902638, 481.725756)"><g><path d="M -0.140625 -10.359375 L 3.953125 -10.359375 L 6 -7.1875 L 8.046875 -10.359375 L 12.15625 -10.359375 L 8.265625 -5.234375 L 12.484375 0 L 8.171875 0 L 6 -3.203125 L 3.84375 0 L -0.46875 0 L 3.75 -5.234375 Z M -0.140625 -10.359375 "/></g></g></g><g fill="#00bf63" fill-opacity="1"><g transform="translate(143.087707, 481.725756)"><g><path d="M 4.9375 -5.1875 C 4.9375 -4.726562 5.046875 -4.300781 5.265625 -3.90625 C 5.492188 -3.507812 5.789062 -3.191406 6.15625 -2.953125 C 6.519531 -2.710938 6.941406 -2.59375 7.421875 -2.59375 C 7.890625 -2.59375 8.304688 -2.710938 8.671875 -2.953125 C 9.046875 -3.191406 9.34375 -3.507812 9.5625 -3.90625 C 9.78125 -4.300781 9.890625 -4.726562 9.890625 -5.1875 C 9.890625 -5.632812 9.78125 -6.054688 9.5625 -6.453125 C 9.34375 -6.847656 9.046875 -7.164062 8.671875 -7.40625 C 8.304688 -7.644531 7.890625 -7.765625 7.421875 -7.765625 C 6.941406 -7.765625 6.519531 -7.644531 6.15625 -7.40625 C 5.789062 -7.164062 5.492188 -6.847656 5.265625 -6.453125 C 5.046875 -6.054688 4.9375 -5.632812 4.9375 -5.1875 Z M 4.9375 5.890625 L 1.40625 5.890625 L 1.40625 -10.390625 L 4.9375 -10.390625 L 4.9375 -9.109375 C 5.394531 -9.671875 5.929688 -10.0625 6.546875 -10.28125 C 7.171875 -10.507812 7.820312 -10.625 8.5 -10.625 C 9.488281 -10.625 10.367188 -10.367188 11.140625 -9.859375 C 11.921875 -9.347656 12.535156 -8.675781 12.984375 -7.84375 C 13.429688 -7.019531 13.65625 -6.132812 13.65625 -5.1875 C 13.65625 -4.226562 13.429688 -3.332031 12.984375 -2.5 C 12.535156 -1.675781 11.921875 -1.015625 11.140625 -0.515625 C 10.367188 -0.015625 9.488281 0.234375 8.5 0.234375 C 7.820312 0.234375 7.148438 0.117188 6.484375 -0.109375 C 5.816406 -0.335938 5.300781 -0.71875 4.9375 -1.25 Z M 4.9375 5.890625 "/></g></g></g><g fill="#00bf63" fill-opacity="1"><g transform="translate(158.744905, 481.725756)"><g><path d="M 4.9375 0 L 1.40625 0 L 1.40625 -17.65625 L 4.9375 -17.65625 Z M 4.9375 0 "/></g></g></g><g fill="#00bf63" fill-opacity="1"><g transform="translate(166.279392, 481.725756)"><g><path d="M 9.53125 -5.1875 C 9.53125 -5.632812 9.421875 -6.054688 9.203125 -6.453125 C 8.984375 -6.847656 8.6875 -7.164062 8.3125 -7.40625 C 7.945312 -7.644531 7.53125 -7.765625 7.0625 -7.765625 C 6.59375 -7.765625 6.171875 -7.644531 5.796875 -7.40625 C 5.429688 -7.164062 5.140625 -6.847656 4.921875 -6.453125 C 4.703125 -6.054688 4.59375 -5.632812 4.59375 -5.1875 C 4.59375 -4.726562 4.703125 -4.300781 4.921875 -3.90625 C 5.140625 -3.507812 5.429688 -3.191406 5.796875 -2.953125 C 6.171875 -2.710938 6.59375 -2.59375 7.0625 -2.59375 C 7.53125 -2.59375 7.945312 -2.710938 8.3125 -2.953125 C 8.6875 -3.191406 8.984375 -3.507812 9.203125 -3.90625 C 9.421875 -4.300781 9.53125 -4.726562 9.53125 -5.1875 Z M 13.0625 -10.359375 L 13.0625 0 L 9.53125 0 L 9.53125 -1.25 C 9.1875 -0.71875 8.671875 -0.335938 7.984375 -0.109375 C 7.304688 0.117188 6.640625 0.234375 5.984375 0.234375 C 5.003906 0.234375 4.125 -0.015625 3.34375 -0.515625 C 2.5625 -1.015625 1.945312 -1.675781 1.5 -2.5 C 1.050781 -3.332031 0.828125 -4.226562 0.828125 -5.1875 C 0.828125 -6.132812 1.050781 -7.019531 1.5 -7.84375 C 1.945312 -8.675781 2.5625 -9.347656 3.34375 -9.859375 C 4.125 -10.367188 5.003906 -10.625 5.984375 -10.625 C 6.640625 -10.625 7.28125 -10.507812 7.90625 -10.28125 C 8.539062 -10.0625 9.082031 -9.671875 9.53125 -9.109375 L 9.53125 -10.359375 Z M 13.0625 -10.359375 "/></g></g></g><g fill="#00bf63" fill-opacity="1"><g transform="translate(181.93659, 481.725756)"><g><path d="M 1.21875 -13.9375 C 1.21875 -14.519531 1.414062 -15.007812 1.8125 -15.40625 C 2.21875 -15.8125 2.710938 -16.015625 3.296875 -16.015625 C 3.859375 -16.015625 4.34375 -15.8125 4.75 -15.40625 C 5.164062 -15.007812 5.375 -14.519531 5.375 -13.9375 C 5.375 -13.375 5.164062 -12.890625 4.75 -12.484375 C 4.34375 -12.078125 3.859375 -11.875 3.296875 -11.875 C 2.710938 -11.875 2.21875 -12.078125 1.8125 -12.484375 C 1.414062 -12.890625 1.21875 -13.375 1.21875 -13.9375 Z M 5.0625 0 L 1.53125 0 L 1.53125 -10.390625 L 5.0625 -10.390625 Z M 5.0625 0 "/></g></g></g><g fill="#00bf63" fill-opacity="1"><g transform="translate(189.706519, 481.725756)"><g><path d="M 12.03125 -5.890625 L 12.03125 0 L 8.5 0 L 8.5 -5.890625 C 8.5 -6.503906 8.375 -6.96875 8.125 -7.28125 C 7.875 -7.601562 7.472656 -7.765625 6.921875 -7.765625 C 6.367188 -7.765625 5.898438 -7.507812 5.515625 -7 C 5.128906 -6.488281 4.9375 -5.882812 4.9375 -5.1875 L 4.9375 0 L 1.40625 0 L 1.40625 -10.390625 L 4.9375 -10.390625 L 4.9375 -9.109375 C 5.300781 -9.566406 5.753906 -9.929688 6.296875 -10.203125 C 6.835938 -10.484375 7.445312 -10.625 8.125 -10.625 C 9.519531 -10.625 10.519531 -10.1875 11.125 -9.3125 C 11.726562 -8.4375 12.03125 -7.296875 12.03125 -5.890625 Z M 12.03125 -5.890625 "/></g></g></g><g fill="#00bf63" fill-opacity="1"><g transform="translate(203.974612, 481.725756)"><g><path d="M 1.21875 -13.9375 C 1.21875 -14.519531 1.414062 -15.007812 1.8125 -15.40625 C 2.21875 -15.8125 2.710938 -16.015625 3.296875 -16.015625 C 3.859375 -16.015625 4.34375 -15.8125 4.75 -15.40625 C 5.164062 -15.007812 5.375 -14.519531 5.375 -13.9375 C 5.375 -13.375 5.164062 -12.890625 4.75 -12.484375 C 4.34375 -12.078125 3.859375 -11.875 3.296875 -11.875 C 2.710938 -11.875 2.21875 -12.078125 1.8125 -12.484375 C 1.414062 -12.890625 1.21875 -13.375 1.21875 -13.9375 Z M 5.0625 0 L 1.53125 0 L 1.53125 -10.390625 L 5.0625 -10.390625 Z M 5.0625 0 "/></g></g></g><g fill="#00bf63" fill-opacity="1"><g transform="translate(211.744541, 481.725756)"><g><path d="M 12.03125 -5.890625 L 12.03125 0 L 8.5 0 L 8.5 -5.890625 C 8.5 -6.503906 8.375 -6.96875 8.125 -7.28125 C 7.875 -7.601562 7.472656 -7.765625 6.921875 -7.765625 C 6.367188 -7.765625 5.898438 -7.507812 5.515625 -7 C 5.128906 -6.488281 4.9375 -5.882812 4.9375 -5.1875 L 4.9375 0 L 1.40625 0 L 1.40625 -10.390625 L 4.9375 -10.390625 L 4.9375 -9.109375 C 5.300781 -9.566406 5.753906 -9.929688 6.296875 -10.203125 C 6.835938 -10.484375 7.445312 -10.625 8.125 -10.625 C 9.519531 -10.625 10.519531 -10.1875 11.125 -9.3125 C 11.726562 -8.4375 12.03125 -7.296875 12.03125 -5.890625 Z M 12.03125 -5.890625 "/></g></g></g><g fill="#00bf63" fill-opacity="1"><g transform="translate(226.012633, 481.725756)"><g><path d="M 7.0625 -2.59375 C 7.53125 -2.59375 7.945312 -2.710938 8.3125 -2.953125 C 8.6875 -3.191406 8.984375 -3.507812 9.203125 -3.90625 C 9.421875 -4.3125 9.53125 -4.742188 9.53125 -5.203125 C 9.53125 -5.660156 9.421875 -6.082031 9.203125 -6.46875 C 8.984375 -6.863281 8.6875 -7.179688 8.3125 -7.421875 C 7.945312 -7.671875 7.53125 -7.796875 7.0625 -7.796875 C 6.59375 -7.796875 6.171875 -7.671875 5.796875 -7.421875 C 5.429688 -7.179688 5.140625 -6.863281 4.921875 -6.46875 C 4.703125 -6.082031 4.59375 -5.660156 4.59375 -5.203125 C 4.59375 -4.742188 4.703125 -4.3125 4.921875 -3.90625 C 5.140625 -3.507812 5.429688 -3.191406 5.796875 -2.953125 C 6.171875 -2.710938 6.59375 -2.59375 7.0625 -2.59375 Z M 9.53125 -9.109375 L 9.53125 -10.390625 L 13.0625 -10.390625 L 13.0625 -0.03125 C 13.0625 1.101562 12.789062 2.117188 12.25 3.015625 C 11.707031 3.910156 10.984375 4.613281 10.078125 5.125 C 9.171875 5.632812 8.164062 5.890625 7.0625 5.890625 C 6.351562 5.890625 5.648438 5.796875 4.953125 5.609375 C 4.253906 5.429688 3.609375 5.15625 3.015625 4.78125 C 2.429688 4.414062 1.957031 3.941406 1.59375 3.359375 C 1.238281 2.785156 1.035156 2.101562 0.984375 1.3125 L 4.515625 1.3125 C 4.640625 1.925781 4.921875 2.40625 5.359375 2.75 C 5.804688 3.09375 6.3125 3.265625 6.875 3.265625 C 7.394531 3.265625 7.851562 3.128906 8.25 2.859375 C 8.65625 2.585938 8.96875 2.226562 9.1875 1.78125 C 9.414062 1.332031 9.53125 0.863281 9.53125 0.375 L 9.53125 -1.265625 C 9.1875 -0.734375 8.671875 -0.347656 7.984375 -0.109375 C 7.304688 0.117188 6.640625 0.234375 5.984375 0.234375 C 5.003906 0.234375 4.125 -0.0195312 3.34375 -0.53125 C 2.5625 -1.039062 1.945312 -1.707031 1.5 -2.53125 C 1.050781 -3.351562 0.828125 -4.242188 0.828125 -5.203125 C 0.828125 -6.160156 1.050781 -7.050781 1.5 -7.875 C 1.945312 -8.695312 2.5625 -9.359375 3.34375 -9.859375 C 4.125 -10.367188 5.003906 -10.625 5.984375 -10.625 C 6.640625 -10.625 7.269531 -10.519531 7.875 -10.3125 C 8.476562 -10.101562 9.03125 -9.703125 9.53125 -9.109375 Z M 9.53125 -9.109375 "/></g></g></g><g fill="#00bf63" fill-opacity="1"><g transform="translate(241.669831, 481.725756)"><g/></g></g><g fill="#00bf63" fill-opacity="1"><g transform="translate(248.733436, 481.725756)"><g><path d="M 10.6875 -3.203125 L 10.6875 0 L 1.40625 0 L 1.40625 -16.015625 L 10.6875 -16.015625 L 10.6875 -12.8125 L 4.9375 -12.8125 L 4.9375 -9.625 L 10.453125 -9.625 L 10.453125 -6.421875 L 4.9375 -6.421875 L 4.9375 -3.203125 Z M 10.6875 -3.203125 "/></g></g></g><g fill="#00bf63" fill-opacity="1"><g transform="translate(262.012677, 481.725756)"><g><path d="M 11.84375 -10.390625 L 7.890625 0 L 3.71875 0 L -0.234375 -10.390625 L 3.3125 -10.390625 L 5.796875 -2.96875 L 8.265625 -10.390625 Z M 11.84375 -10.390625 "/></g></g></g><g fill="#00bf63" fill-opacity="1"><g transform="translate(274.797492, 481.725756)"><g><path d="M 4.609375 -6.421875 L 9.25 -6.421875 C 9.25 -6.421875 9.226562 -6.519531 9.1875 -6.71875 C 9.15625 -6.914062 9.0625 -7.140625 8.90625 -7.390625 C 8.757812 -7.640625 8.53125 -7.863281 8.21875 -8.0625 C 7.90625 -8.257812 7.484375 -8.359375 6.953125 -8.359375 C 6.398438 -8.359375 5.96875 -8.257812 5.65625 -8.0625 C 5.34375 -7.863281 5.109375 -7.640625 4.953125 -7.390625 C 4.804688 -7.140625 4.710938 -6.914062 4.671875 -6.71875 C 4.628906 -6.519531 4.609375 -6.421875 4.609375 -6.421875 Z M 12.640625 -5.421875 C 12.640625 -5.304688 12.632812 -5.191406 12.625 -5.078125 C 12.625 -4.972656 12.625 -4.863281 12.625 -4.75 L 4.5625 -4.75 C 4.5625 -4.363281 4.648438 -3.976562 4.828125 -3.59375 C 5.015625 -3.207031 5.273438 -2.890625 5.609375 -2.640625 C 5.953125 -2.398438 6.351562 -2.28125 6.8125 -2.28125 C 7.4375 -2.28125 7.925781 -2.445312 8.28125 -2.78125 C 8.644531 -3.125 8.835938 -3.484375 8.859375 -3.859375 L 12.453125 -3.859375 C 12.160156 -2.492188 11.503906 -1.46875 10.484375 -0.78125 C 9.460938 -0.101562 8.257812 0.234375 6.875 0.234375 C 5.6875 0.234375 4.632812 0.0078125 3.71875 -0.4375 C 2.8125 -0.882812 2.101562 -1.507812 1.59375 -2.3125 C 1.082031 -3.125 0.828125 -4.082031 0.828125 -5.1875 C 0.828125 -6.269531 1.085938 -7.21875 1.609375 -8.03125 C 2.140625 -8.84375 2.859375 -9.476562 3.765625 -9.9375 C 4.679688 -10.394531 5.71875 -10.625 6.875 -10.625 C 7.925781 -10.625 8.882812 -10.414062 9.75 -10 C 10.625 -9.59375 11.320312 -9.003906 11.84375 -8.234375 C 12.375 -7.472656 12.640625 -6.535156 12.640625 -5.421875 Z M 12.640625 -5.421875 "/></g></g></g><g fill="#00bf63" fill-opacity="1"><g transform="translate(289.442295, 481.725756)"><g><path d="M 7.28125 -7.765625 C 6.832031 -7.765625 6.429688 -7.632812 6.078125 -7.375 C 5.734375 -7.125 5.457031 -6.800781 5.25 -6.40625 C 5.039062 -6.007812 4.9375 -5.601562 4.9375 -5.1875 L 4.9375 0 L 1.40625 0 L 1.40625 -10.390625 L 4.9375 -10.390625 L 4.9375 -9.109375 C 5.207031 -9.503906 5.566406 -9.851562 6.015625 -10.15625 C 6.472656 -10.46875 7.023438 -10.625 7.671875 -10.625 C 7.828125 -10.625 8.007812 -10.601562 8.21875 -10.5625 C 8.425781 -10.519531 8.597656 -10.460938 8.734375 -10.390625 L 8.734375 -7.1875 L 8.6875 -7.1875 C 8.519531 -7.40625 8.304688 -7.554688 8.046875 -7.640625 C 7.796875 -7.722656 7.539062 -7.765625 7.28125 -7.765625 Z M 7.28125 -7.765625 "/></g></g></g><g fill="#00bf63" fill-opacity="1"><g transform="translate(299.590181, 481.725756)"><g><path d="M 5.625 5.890625 L 1.953125 5.890625 L 4.3125 0 L 3.71875 0 L -0.234375 -10.390625 L 3.3125 -10.390625 L 5.796875 -2.96875 L 8.265625 -10.390625 L 11.84375 -10.390625 L 7.890625 0 Z M 5.625 5.890625 "/></g></g></g><g fill="#00bf63" fill-opacity="1"><g transform="translate(312.374997, 481.725756)"><g/></g></g><g fill="#00bf63" fill-opacity="1"><g transform="translate(319.438613, 481.725756)"><g><path d="M 8.21875 -12.8125 L 8.21875 0 L 4.6875 0 L 4.6875 -12.8125 L 0.125 -12.8125 L 0.125 -16.015625 L 12.78125 -16.015625 L 12.78125 -12.8125 Z M 8.21875 -12.8125 "/></g></g></g><g fill="#00bf63" fill-opacity="1"><g transform="translate(330.881104, 481.725756)"><g><path d="M 6.765625 -2.453125 C 7.390625 -2.453125 7.875 -2.582031 8.21875 -2.84375 C 8.5625 -3.113281 8.800781 -3.457031 8.9375 -3.875 C 9.082031 -4.289062 9.15625 -4.71875 9.15625 -5.15625 C 9.15625 -5.59375 9.082031 -6.015625 8.9375 -6.421875 C 8.789062 -6.835938 8.539062 -7.175781 8.1875 -7.4375 C 7.84375 -7.707031 7.367188 -7.84375 6.765625 -7.84375 C 6.148438 -7.84375 5.664062 -7.707031 5.3125 -7.4375 C 4.957031 -7.175781 4.703125 -6.835938 4.546875 -6.421875 C 4.398438 -6.015625 4.328125 -5.59375 4.328125 -5.15625 C 4.328125 -4.71875 4.394531 -4.289062 4.53125 -3.875 C 4.675781 -3.457031 4.925781 -3.113281 5.28125 -2.84375 C 5.632812 -2.582031 6.128906 -2.453125 6.765625 -2.453125 Z M 6.765625 -10.59375 C 7.835938 -10.59375 8.820312 -10.363281 9.71875 -9.90625 C 10.613281 -9.457031 11.328125 -8.828125 11.859375 -8.015625 C 12.398438 -7.210938 12.671875 -6.269531 12.671875 -5.1875 C 12.671875 -4.082031 12.40625 -3.125 11.875 -2.3125 C 11.351562 -1.507812 10.644531 -0.882812 9.75 -0.4375 C 8.851562 0 7.859375 0.21875 6.765625 0.21875 C 5.660156 0.21875 4.65625 0 3.75 -0.4375 C 2.851562 -0.882812 2.140625 -1.507812 1.609375 -2.3125 C 1.085938 -3.125 0.828125 -4.082031 0.828125 -5.1875 C 0.828125 -6.269531 1.09375 -7.210938 1.625 -8.015625 C 2.15625 -8.828125 2.875 -9.457031 3.78125 -9.90625 C 4.6875 -10.363281 5.679688 -10.59375 6.765625 -10.59375 Z M 6.765625 -10.59375 "/></g></g></g><g fill="#00bf63" fill-opacity="1"><g transform="translate(345.549439, 481.725756)"><g><path d="M 4.9375 -5.1875 C 4.9375 -4.726562 5.046875 -4.300781 5.265625 -3.90625 C 5.492188 -3.507812 5.789062 -3.191406 6.15625 -2.953125 C 6.519531 -2.710938 6.941406 -2.59375 7.421875 -2.59375 C 7.890625 -2.59375 8.304688 -2.710938 8.671875 -2.953125 C 9.046875 -3.191406 9.34375 -3.507812 9.5625 -3.90625 C 9.78125 -4.300781 9.890625 -4.726562 9.890625 -5.1875 C 9.890625 -5.632812 9.78125 -6.054688 9.5625 -6.453125 C 9.34375 -6.847656 9.046875 -7.164062 8.671875 -7.40625 C 8.304688 -7.644531 7.890625 -7.765625 7.421875 -7.765625 C 6.941406 -7.765625 6.519531 -7.644531 6.15625 -7.40625 C 5.789062 -7.164062 5.492188 -6.847656 5.265625 -6.453125 C 5.046875 -6.054688 4.9375 -5.632812 4.9375 -5.1875 Z M 4.9375 5.890625 L 1.40625 5.890625 L 1.40625 -10.390625 L 4.9375 -10.390625 L 4.9375 -9.109375 C 5.394531 -9.671875 5.929688 -10.0625 6.546875 -10.28125 C 7.171875 -10.507812 7.820312 -10.625 8.5 -10.625 C 9.488281 -10.625 10.367188 -10.367188 11.140625 -9.859375 C 11.921875 -9.347656 12.535156 -8.675781 12.984375 -7.84375 C 13.429688 -7.019531 13.65625 -6.132812 13.65625 -5.1875 C 13.65625 -4.226562 13.429688 -3.332031 12.984375 -2.5 C 12.535156 -1.675781 11.921875 -1.015625 11.140625 -0.515625 C 10.367188 -0.015625 9.488281 0.234375 8.5 0.234375 C 7.820312 0.234375 7.148438 0.117188 6.484375 -0.109375 C 5.816406 -0.335938 5.300781 -0.71875 4.9375 -1.25 Z M 4.9375 5.890625 "/></g></g></g><g fill="#00bf63" fill-opacity="1"><g transform="translate(361.206626, 481.725756)"><g><path d="M 1.21875 -13.9375 C 1.21875 -14.519531 1.414062 -15.007812 1.8125 -15.40625 C 2.21875 -15.8125 2.710938 -16.015625 3.296875 -16.015625 C 3.859375 -16.015625 4.34375 -15.8125 4.75 -15.40625 C 5.164062 -15.007812 5.375 -14.519531 5.375 -13.9375 C 5.375 -13.375 5.164062 -12.890625 4.75 -12.484375 C 4.34375 -12.078125 3.859375 -11.875 3.296875 -11.875 C 2.710938 -11.875 2.21875 -12.078125 1.8125 -12.484375 C 1.414062 -12.890625 1.21875 -13.375 1.21875 -13.9375 Z M 5.0625 0 L 1.53125 0 L 1.53125 -10.390625 L 5.0625 -10.390625 Z M 5.0625 0 "/></g></g></g><g fill="#00bf63" fill-opacity="1"><g transform="translate(368.976578, 481.725756)"><g><path d="M 6.703125 -7.859375 C 6.171875 -7.859375 5.75 -7.710938 5.4375 -7.421875 C 5.132812 -7.140625 4.914062 -6.789062 4.78125 -6.375 C 4.65625 -5.957031 4.59375 -5.550781 4.59375 -5.15625 C 4.59375 -4.757812 4.65625 -4.347656 4.78125 -3.921875 C 4.90625 -3.503906 5.117188 -3.15625 5.421875 -2.875 C 5.734375 -2.59375 6.160156 -2.453125 6.703125 -2.453125 C 7.253906 -2.453125 7.71875 -2.566406 8.09375 -2.796875 C 8.476562 -3.035156 8.703125 -3.390625 8.765625 -3.859375 L 12.203125 -3.859375 C 12.085938 -3.085938 11.785156 -2.390625 11.296875 -1.765625 C 10.816406 -1.148438 10.175781 -0.660156 9.375 -0.296875 C 8.570312 0.0546875 7.644531 0.234375 6.59375 0.234375 C 5.394531 0.234375 4.363281 -0.0078125 3.5 -0.5 C 2.644531 -1 1.984375 -1.65625 1.515625 -2.46875 C 1.054688 -3.289062 0.828125 -4.195312 0.828125 -5.1875 C 0.828125 -6.164062 1.066406 -7.066406 1.546875 -7.890625 C 2.023438 -8.722656 2.695312 -9.382812 3.5625 -9.875 C 4.4375 -10.375 5.445312 -10.625 6.59375 -10.625 C 7.71875 -10.625 8.691406 -10.421875 9.515625 -10.015625 C 10.347656 -9.617188 11.003906 -9.085938 11.484375 -8.421875 C 11.960938 -7.753906 12.222656 -7.019531 12.265625 -6.21875 L 8.765625 -6.21875 C 8.742188 -6.71875 8.546875 -7.113281 8.171875 -7.40625 C 7.804688 -7.707031 7.316406 -7.859375 6.703125 -7.859375 Z M 6.703125 -7.859375 "/></g></g></g><g fill="#00bf63" fill-opacity="1"><g transform="translate(383.150498, 481.725756)"><g><path d="M 4.984375 -3.203125 L 2 3.15625 L 0.078125 3.15625 L 1.5 -3.203125 Z M 4.984375 -3.203125 "/></g></g></g><g fill="#00bf63" fill-opacity="1"><g transform="translate(390.11992, 481.725756)"><g/></g></g><g fill="#00bf63" fill-opacity="1"><g transform="translate(397.183513, 481.725756)"><g><path d="M 11.015625 -7.234375 L 7.5625 -7.234375 C 7.5 -7.703125 7.289062 -8.019531 6.9375 -8.1875 C 6.582031 -8.351562 6.234375 -8.4375 5.890625 -8.4375 C 5.546875 -8.4375 5.222656 -8.351562 4.921875 -8.1875 C 4.617188 -8.019531 4.46875 -7.78125 4.46875 -7.46875 C 4.46875 -7.226562 4.628906 -7.050781 4.953125 -6.9375 C 5.273438 -6.820312 5.691406 -6.726562 6.203125 -6.65625 C 6.710938 -6.582031 7.253906 -6.488281 7.828125 -6.375 C 8.398438 -6.269531 8.941406 -6.097656 9.453125 -5.859375 C 9.960938 -5.628906 10.378906 -5.296875 10.703125 -4.859375 C 11.023438 -4.429688 11.1875 -3.847656 11.1875 -3.109375 C 11.1875 -2.296875 10.96875 -1.644531 10.53125 -1.15625 C 10.101562 -0.664062 9.503906 -0.3125 8.734375 -0.09375 C 7.960938 0.125 7.078125 0.234375 6.078125 0.234375 C 5.054688 0.234375 4.132812 0.0976562 3.3125 -0.171875 C 2.488281 -0.453125 1.820312 -0.894531 1.3125 -1.5 C 0.8125 -2.101562 0.53125 -2.890625 0.46875 -3.859375 L 3.984375 -3.859375 C 3.984375 -3.335938 4.109375 -2.960938 4.359375 -2.734375 C 4.609375 -2.515625 4.90625 -2.375 5.25 -2.3125 C 5.59375 -2.25 5.890625 -2.21875 6.140625 -2.21875 C 6.554688 -2.21875 6.90625 -2.289062 7.1875 -2.4375 C 7.476562 -2.582031 7.625 -2.796875 7.625 -3.078125 C 7.625 -3.441406 7.460938 -3.71875 7.140625 -3.90625 C 6.816406 -4.09375 6.398438 -4.234375 5.890625 -4.328125 C 5.390625 -4.421875 4.851562 -4.515625 4.28125 -4.609375 C 3.707031 -4.703125 3.164062 -4.835938 2.65625 -5.015625 C 2.144531 -5.203125 1.726562 -5.472656 1.40625 -5.828125 C 1.082031 -6.191406 0.921875 -6.691406 0.921875 -7.328125 C 0.921875 -8.390625 1.335938 -9.203125 2.171875 -9.765625 C 3.003906 -10.335938 4.273438 -10.625 5.984375 -10.625 C 7.347656 -10.625 8.488281 -10.351562 9.40625 -9.8125 C 10.320312 -9.28125 10.859375 -8.421875 11.015625 -7.234375 Z M 11.015625 -7.234375 "/></g></g></g><g fill="#00bf63" fill-opacity="1"><g transform="translate(410.250856, 481.725756)"><g><path d="M 1.21875 -13.9375 C 1.21875 -14.519531 1.414062 -15.007812 1.8125 -15.40625 C 2.21875 -15.8125 2.710938 -16.015625 3.296875 -16.015625 C 3.859375 -16.015625 4.34375 -15.8125 4.75 -15.40625 C 5.164062 -15.007812 5.375 -14.519531 5.375 -13.9375 C 5.375 -13.375 5.164062 -12.890625 4.75 -12.484375 C 4.34375 -12.078125 3.859375 -11.875 3.296875 -11.875 C 2.710938 -11.875 2.21875 -12.078125 1.8125 -12.484375 C 1.414062 -12.890625 1.21875 -13.375 1.21875 -13.9375 Z M 5.0625 0 L 1.53125 0 L 1.53125 -10.390625 L 5.0625 -10.390625 Z M 5.0625 0 "/></g></g></g><g fill="#00bf63" fill-opacity="1"><g transform="translate(418.020808, 481.725756)"><g><path d="M 11.890625 -5.28125 L 11.890625 0 L 8.359375 0 L 8.359375 -5.75 C 8.359375 -6.25 8.253906 -6.707031 8.046875 -7.125 C 7.847656 -7.550781 7.453125 -7.765625 6.859375 -7.765625 C 6.460938 -7.765625 6.117188 -7.617188 5.828125 -7.328125 C 5.535156 -7.046875 5.3125 -6.703125 5.15625 -6.296875 C 5.007812 -5.898438 4.9375 -5.53125 4.9375 -5.1875 L 4.9375 0 L 1.40625 0 L 1.40625 -10.390625 L 4.9375 -10.390625 L 4.9375 -9.109375 C 5.300781 -9.566406 5.726562 -9.929688 6.21875 -10.203125 C 6.707031 -10.484375 7.238281 -10.625 7.8125 -10.625 C 8.476562 -10.625 9.09375 -10.476562 9.65625 -10.1875 C 10.21875 -9.894531 10.679688 -9.453125 11.046875 -8.859375 C 11.546875 -9.492188 12.097656 -9.945312 12.703125 -10.21875 C 13.304688 -10.488281 14.015625 -10.625 14.828125 -10.625 C 15.742188 -10.625 16.492188 -10.398438 17.078125 -9.953125 C 17.671875 -9.515625 18.113281 -8.925781 18.40625 -8.1875 C 18.695312 -7.457031 18.84375 -6.644531 18.84375 -5.75 L 18.84375 0 L 15.3125 0 L 15.3125 -5.75 C 15.3125 -6.25 15.207031 -6.707031 15 -7.125 C 14.789062 -7.550781 14.390625 -7.765625 13.796875 -7.765625 C 13.335938 -7.765625 12.96875 -7.640625 12.6875 -7.390625 C 12.40625 -7.140625 12.203125 -6.820312 12.078125 -6.4375 C 11.953125 -6.050781 11.890625 -5.664062 11.890625 -5.28125 Z M 11.890625 -5.28125 "/></g></g></g><g fill="#00bf63" fill-opacity="1"><g transform="translate(439.093134, 481.725756)"><g><path d="M 4.9375 -5.1875 C 4.9375 -4.726562 5.046875 -4.300781 5.265625 -3.90625 C 5.492188 -3.507812 5.789062 -3.191406 6.15625 -2.953125 C 6.519531 -2.710938 6.941406 -2.59375 7.421875 -2.59375 C 7.890625 -2.59375 8.304688 -2.710938 8.671875 -2.953125 C 9.046875 -3.191406 9.34375 -3.507812 9.5625 -3.90625 C 9.78125 -4.300781 9.890625 -4.726562 9.890625 -5.1875 C 9.890625 -5.632812 9.78125 -6.054688 9.5625 -6.453125 C 9.34375 -6.847656 9.046875 -7.164062 8.671875 -7.40625 C 8.304688 -7.644531 7.890625 -7.765625 7.421875 -7.765625 C 6.941406 -7.765625 6.519531 -7.644531 6.15625 -7.40625 C 5.789062 -7.164062 5.492188 -6.847656 5.265625 -6.453125 C 5.046875 -6.054688 4.9375 -5.632812 4.9375 -5.1875 Z M 4.9375 5.890625 L 1.40625 5.890625 L 1.40625 -10.390625 L 4.9375 -10.390625 L 4.9375 -9.109375 C 5.394531 -9.671875 5.929688 -10.0625 6.546875 -10.28125 C 7.171875 -10.507812 7.820312 -10.625 8.5 -10.625 C 9.488281 -10.625 10.367188 -10.367188 11.140625 -9.859375 C 11.921875 -9.347656 12.535156 -8.675781 12.984375 -7.84375 C 13.429688 -7.019531 13.65625 -6.132812 13.65625 -5.1875 C 13.65625 -4.226562 13.429688 -3.332031 12.984375 -2.5 C 12.535156 -1.675781 11.921875 -1.015625 11.140625 -0.515625 C 10.367188 -0.015625 9.488281 0.234375 8.5 0.234375 C 7.820312 0.234375 7.148438 0.117188 6.484375 -0.109375 C 5.816406 -0.335938 5.300781 -0.71875 4.9375 -1.25 Z M 4.9375 5.890625 "/></g></g></g><g fill="#00bf63" fill-opacity="1"><g transform="translate(454.750321, 481.725756)"><g><path d="M 4.9375 0 L 1.40625 0 L 1.40625 -17.65625 L 4.9375 -17.65625 Z M 4.9375 0 "/></g></g></g><g fill="#00bf63" fill-opacity="1"><g transform="translate(462.28482, 481.725756)"><g><path d="M 5.625 5.890625 L 1.953125 5.890625 L 4.3125 0 L 3.71875 0 L -0.234375 -10.390625 L 3.3125 -10.390625 L 5.796875 -2.96875 L 8.265625 -10.390625 L 11.84375 -10.390625 L 7.890625 0 Z M 5.625 5.890625 "/></g></g></g></g></g></svg>