<svg xmlns="http://www.w3.org/2000/svg" width="512" height="512" viewBox="260 320 560 720">
  <g transform="matrix(1, 0, 0, 1, 296, 358)"><clipPath id="a"><path d="M 1 121 L 516.832031 121 L 516.832031 489 L 1 489 Z"/></clipPath><clipPath id="b"><path d="M 31 198 L 308 198 L 308 676.398438 L 31 676.398438 Z"/></clipPath><clipPath id="c"><path d="M 47 0.722656 L 508 0.722656 L 508 167 L 47 167 Z"/></clipPath><clipPath id="d"><rect x="0" width="518" y="0" height="677"/></clipPath><g clip-path="url(#d)"><g clip-path="url(#a)"><path fill="#00bf63" d="M 516.667969 253.667969 C 433.03125 157.257812 295.410156 127.128906 180.085938 179.488281 C 62.464844 232.859375 -5.5 360.003906 15.375 488.4375 C -29.617188 351.628906 36.929688 202.117188 166.238281 144.695312 C 291.832031 88.957031 442.625 135.101562 516.667969 253.667969 Z"/></g><g clip-path="url(#b)"><path fill="#0e4c27" d="M 194.949219 198.402344 C 90.90625 260.894531 42.941406 385.136719 77.328125 496.070312 C 108.136719 595.585938 199.882812 667.332031 307.503906 675.101562 C 187.519531 686.65625 76.855469 613.691406 42.535156 505.257812 C 4.363281 384.800781 69.289062 247.652344 194.949219 198.402344 Z"/></g><g clip-path="url(#c)"><path fill="#0e4c27" d="M 493.765625 141.855469 L 493.765625 92.875 L 507.816406 88.957031 L 277.84375 0.722656 L 47.871094 88.957031 L 123.066406 110.847656 C 123.066406 128.277344 123.066406 145.773438 123.066406 163.203125 C 143.535156 149.355469 198.125 116.320312 275.34375 115.441406 C 356.484375 114.496094 413.976562 149.488281 434.179688 163.203125 C 434.109375 149.625 434.042969 136.113281 433.976562 122.535156 C 427.285156 119.15625 420.328125 115.777344 413.097656 112.46875 C 393.507812 103.617188 374.65625 96.726562 357.09375 91.253906 C 373.375 92.199219 392.898438 95.039062 414.113281 101.996094 C 421.339844 104.359375 428.03125 106.925781 434.179688 109.699219 L 486.132812 95.105469 L 486.132812 141.921875 C 480.929688 143.542969 477.144531 148.410156 477.144531 154.152344 C 477.144531 161.246094 482.886719 166.988281 489.980469 166.988281 C 497.074219 166.988281 502.820312 161.246094 502.820312 154.152344 C 502.75 148.339844 498.96875 143.476562 493.765625 141.855469 Z"/></g><g fill="#0e4c27" fill-opacity="1"><g transform="translate(116.623397, 451.514122)"><g><path d="M 3.109375 0 L 3.109375 -70.375 L 31.296875 -70.375 L 31.296875 -56.765625 L 17.453125 -56.765625 L 17.453125 -43.09375 L 30.71875 -43.09375 L 30.71875 -29.8125 L 17.453125 -29.8125 L 17.453125 -13.6875 L 32.1875 -13.6875 L 32.1875 0 Z"/></g></g></g><g fill="#0e4c27" fill-opacity="1"><g transform="translate(160.283413, 451.514122)"><g><path d="M 37.28125 0 L 22.9375 0 L 16.875 -16.875 L 11.140625 0 L 0.328125 0 L 11.3125 -32.1875 L 1.3125 -60.046875 L 15.890625 -60.046875 L 21.046875 -45.46875 L 26.140625 -60.046875 L 36.78125 -60.046875 L 26.453125 -30.390625 Z"/></g></g></g><g fill="#0e4c27" fill-opacity="1"><g transform="translate(207.793296, 451.514122)"><g><path d="M 2.875 -59.96875 L 17.453125 -59.96875 L 17.453125 -56.765625 C 19.523438 -59.335938 22.390625 -60.625 26.046875 -60.625 C 30.691406 -60.625 33.925781 -59.066406 35.75 -55.953125 C 37.582031 -52.835938 38.5 -48.523438 38.5 -43.015625 L 38.5 -20.8125 C 38.5 -16.113281 38.222656 -12.273438 37.671875 -9.296875 C 37.128906 -6.316406 35.929688 -3.910156 34.078125 -2.078125 C 32.222656 -0.253906 29.410156 0.65625 25.640625 0.65625 C 22.035156 0.65625 19.304688 -0.351562 17.453125 -2.375 L 17.453125 11.953125 L 2.875 11.953125 Z M 20.890625 -10.484375 C 22.203125 -10.484375 23.046875 -11.082031 23.421875 -12.28125 C 23.804688 -13.488281 24 -15.238281 24 -17.53125 L 24 -43.015625 C 24 -45.085938 23.804688 -46.671875 23.421875 -47.765625 C 23.046875 -48.859375 22.175781 -49.40625 20.8125 -49.40625 C 18.570312 -49.40625 17.453125 -47.328125 17.453125 -43.171875 L 17.453125 -16.875 C 17.453125 -14.851562 17.679688 -13.28125 18.140625 -12.15625 C 18.609375 -11.039062 19.523438 -10.484375 20.890625 -10.484375 Z"/></g></g></g><g fill="#0e4c27" fill-opacity="1"><g transform="translate(258.661572, 451.514122)"><g><path d="M 2.875 0 L 2.875 -70.78125 L 17.453125 -70.78125 L 17.453125 0 Z"/></g></g></g><g fill="#0e4c27" fill-opacity="1"><g transform="translate(288.888012, 451.514122)"><g><path d="M 13.765625 0.65625 C 9.117188 0.65625 5.9375 -0.882812 4.21875 -3.96875 C 2.5 -7.0625 1.640625 -11.472656 1.640625 -17.203125 C 1.640625 -21.898438 2.253906 -25.503906 3.484375 -28.015625 C 4.710938 -30.523438 6.414062 -32.367188 8.59375 -33.546875 C 10.78125 -34.722656 14.113281 -36.019531 18.59375 -37.4375 L 22.53125 -38.75 L 22.53125 -44.890625 C 22.53125 -46.472656 22.210938 -47.6875 21.578125 -48.53125 C 20.953125 -49.382812 20.203125 -49.8125 19.328125 -49.8125 C 18.566406 -49.8125 17.898438 -49.453125 17.328125 -48.734375 C 16.753906 -48.023438 16.46875 -47.070312 16.46875 -45.875 L 16.46875 -42.265625 L 2.546875 -42.265625 L 2.546875 -44.234375 C 2.546875 -50.128906 3.921875 -54.332031 6.671875 -56.84375 C 9.429688 -59.363281 13.925781 -60.625 20.15625 -60.625 C 25.125 -60.625 29.164062 -59.328125 32.28125 -56.734375 C 35.394531 -54.140625 36.953125 -50.46875 36.953125 -45.71875 L 36.953125 0 L 22.6875 0 L 22.6875 -7.125 C 21.976562 -4.664062 20.84375 -2.753906 19.28125 -1.390625 C 17.726562 -0.0234375 15.890625 0.65625 13.765625 0.65625 Z M 19.421875 -10.484375 C 20.503906 -10.484375 21.28125 -10.929688 21.75 -11.828125 C 22.21875 -12.734375 22.453125 -13.84375 22.453125 -15.15625 L 22.453125 -31.875 C 20.316406 -31.050781 18.742188 -30.007812 17.734375 -28.75 C 16.722656 -27.5 16.21875 -25.753906 16.21875 -23.515625 L 16.21875 -15.8125 C 16.21875 -12.257812 17.285156 -10.484375 19.421875 -10.484375 Z"/></g></g></g><g fill="#0e4c27" fill-opacity="1"><g transform="translate(338.363785, 451.514122)"><g><path d="M 2.78125 -63.984375 L 2.78125 -73.96875 L 17.125 -73.96875 L 17.125 -63.984375 Z M 2.78125 0 L 2.78125 -59.96875 L 17.125 -59.96875 L 17.125 0 Z"/></g></g></g><g fill="#0e4c27" fill-opacity="1"><g transform="translate(368.180665, 451.514122)"><g><path d="M 2.875 -59.96875 L 17.203125 -59.96875 L 17.203125 -52.34375 C 17.804688 -54.800781 18.84375 -56.796875 20.3125 -58.328125 C 21.789062 -59.859375 23.757812 -60.625 26.21875 -60.625 C 30.257812 -60.625 33.25 -59.378906 35.1875 -56.890625 C 37.125 -54.410156 38.09375 -50.875 38.09375 -46.28125 L 38.09375 0 L 24 0 L 24 -44.8125 C 24 -46.125 23.738281 -47.242188 23.21875 -48.171875 C 22.707031 -49.097656 21.90625 -49.5625 20.8125 -49.5625 C 19.332031 -49.5625 18.359375 -48.890625 17.890625 -47.546875 C 17.429688 -46.210938 17.203125 -44.425781 17.203125 -42.1875 L 17.203125 0 L 2.875 0 Z"/></g></g></g><g fill="#0e4c27" fill-opacity="1"><g transform="translate(418.967027, 451.514122)"><g><path d="M 2.453125 0 L 2.453125 -70.375 L 16.0625 -70.375 L 16.0625 0 Z"/></g></g></g><g fill="#0e4c27" fill-opacity="1"><g transform="translate(447.473306, 451.514122)"><g><path d="M 15.234375 0.65625 C 11.460938 0.65625 8.867188 -0.132812 7.453125 -1.71875 C 6.035156 -3.300781 5.328125 -5.84375 5.328125 -9.34375 L 5.328125 -46.78125 L 1.3125 -46.78125 L 1.3125 -57.671875 L 5.328125 -57.671875 L 5.328125 -70.375 L 19.25 -70.375 L 19.25 -57.671875 L 23.34375 -57.671875 L 23.34375 -46.78125 L 19.25 -46.78125 L 19.25 -13.109375 C 19.25 -12.066406 19.332031 -11.300781 19.5 -10.8125 C 19.664062 -10.320312 20.101562 -10.078125 20.8125 -10.078125 C 21.351562 -10.078125 21.867188 -10.101562 22.359375 -10.15625 C 22.859375 -10.207031 23.1875 -10.234375 23.34375 -10.234375 L 23.34375 -0.40625 C 22.53125 -0.1875 21.34375 0.0390625 19.78125 0.28125 C 18.226562 0.53125 16.710938 0.65625 15.234375 0.65625 Z"/></g></g></g></g></g>
</svg>
